<?xml version="1.0" encoding="UTF-8"?>
<svg id="_레이어_1" data-name="레이어 1" xmlns="http://www.w3.org/2000/svg" xmlns:xlink="http://www.w3.org/1999/xlink" viewBox="0 0 429.96 85.48">
  <defs>
    <style>
      .cls-1 {
        fill: #0c87f2;
      }

      .cls-2 {
        fill: url(#_무제_그라디언트_20);
      }
    </style>
    <linearGradient id="_무제_그라디언트_20" data-name="무제 그라디언트 20" x1="0" y1="42.74" x2="100" y2="42.74" gradientUnits="userSpaceOnUse">
      <stop offset="0" stop-color="#0c87f2" stop-opacity=".2"/>
      <stop offset=".05" stop-color="#0c87f2" stop-opacity=".22"/>
      <stop offset=".12" stop-color="#0c87f2" stop-opacity=".29"/>
      <stop offset=".19" stop-color="#0c87f2" stop-opacity=".39"/>
      <stop offset=".27" stop-color="#0c87f2" stop-opacity=".54"/>
      <stop offset=".35" stop-color="#0c87f2" stop-opacity=".73"/>
      <stop offset=".43" stop-color="#0c87f2" stop-opacity=".96"/>
      <stop offset=".45" stop-color="#0c87f2"/>
    </linearGradient>
  </defs>
  <path class="cls-2" d="M99.99,47.55c-.15,1.03-1.23,3.76-8.48,4.89l-1.06,14.28s-2.83,16.93-19.46,6.88v11.64h-36.87v-8.5h-8.53v-8.5h8.53v-8.5h8.53v-8.5h8.53v-8.5h-8.53v-8.5h-8.53v-8.5h8.53v-8.5h8.53v-8.5h-8.53V.24h8.53s13.31-.36,24.42,4.76c8.72,4.03,14.54,12.27,15.21,27.69l9.03,14.19c.13.2.19.44.16.67ZM29.85,59.74h-8.53v-8.5h8.53v8.5ZM42.64,51.24h-8.53v-8.5h8.53v8.5ZM17.06,72.49h-8.53v-8.5h8.53v8.5ZM25.59,34.24h-8.53v-8.5h8.53v8.5ZM34.11,25.74h-8.53v-8.5h8.53v8.5ZM42.64,17.24h-8.53v-8.5h8.53v8.5ZM29.85,8.74h-8.53V.24h8.53v8.5ZM21.32,17.24h-8.53v-8.5h8.53v8.5ZM17.06,45.56h-8.53v-8.5h8.53v8.5ZM8.53,34.24H0v-8.5h8.53v8.5ZM8.53,59.74H0v-8.5h8.53v8.5Z"/>
  <g>
    <path class="cls-1" d="M114.78,17.51c0-10.86,6.16-17.51,17.51-17.51s17.63,6.65,17.63,17.51v23.18h-9.88v-11.35h-15.62v11.35h-9.64v-23.18ZM140.03,20.8v-3.29c0-5.49-2.38-8.36-7.81-8.36s-7.81,2.87-7.81,8.36v3.29h15.62Z"/>
    <path class="cls-1" d="M157.17.79h14.09c14.03,0,21.35,7.99,21.35,19.95s-7.32,19.95-21.35,19.95h-14.09V.79ZM171.26,31.54c7.99,0,11.35-4.15,11.35-10.8s-3.36-10.8-11.35-10.8h-4.21v21.6h4.21Z"/>
    <path class="cls-1" d="M198.77.79h9.88v15.07h14.95V.79h9.88v39.9h-9.88v-15.68h-14.95v15.68h-9.88V.79Z"/>
    <path class="cls-1" d="M241.66.79h14.09c14.03,0,21.35,7.99,21.35,19.95s-7.32,19.95-21.35,19.95h-14.09V.79ZM255.75,31.54c7.99,0,11.35-4.15,11.35-10.8s-3.36-10.8-11.35-10.8h-4.21v21.6h4.21Z"/>
    <path class="cls-1" d="M115.75,44.79h14.09c14.03,0,21.35,7.99,21.35,19.95s-7.32,19.95-21.35,19.95h-14.09v-39.9ZM129.85,75.54c7.99,0,11.35-4.15,11.35-10.8s-3.36-10.8-11.35-10.8h-4.21v21.6h4.21Z"/>
    <path class="cls-1" d="M157.36,44.79h9.88v39.9h-9.88v-39.9Z"/>
    <path class="cls-1" d="M174.43,61.51c0-10.86,6.16-17.51,17.51-17.51s17.63,6.65,17.63,17.51v23.18h-9.88v-11.35h-15.62v11.35h-9.64v-23.18ZM199.69,64.8v-3.29c0-5.49-2.38-8.36-7.81-8.36s-7.81,2.87-7.81,8.36v3.29h15.62Z"/>
    <path class="cls-1" d="M214.82,64.74c0-11.96,8.78-20.74,21.23-20.74,9.94,0,17.63,5.61,20.25,14.03h-10.86c-1.89-3.05-5.19-4.88-9.39-4.88-6.77,0-11.22,4.88-11.22,11.59s4.45,11.59,11.22,11.59c5,0,8.54-2.01,10.37-5.92h-12.81v-7.93h23.61v4.33c-.98,10.86-9.46,18.67-21.17,18.67-12.45,0-21.23-8.78-21.23-20.74Z"/>
    <path class="cls-1" d="M262.09,60.78c0-10.31,6.1-16.78,17.08-16.78s17.08,6.47,17.08,16.78v23.91h-9.88v-23.91c0-4.88-2.32-7.63-7.2-7.63s-7.2,2.75-7.2,7.63v23.91h-9.88v-23.91Z"/>
    <path class="cls-1" d="M301.5,64.74c0-11.96,8.78-20.74,21.23-20.74s21.23,8.79,21.23,20.74-8.78,20.74-21.23,20.74-21.23-8.78-21.23-20.74ZM333.95,64.74c0-6.71-4.45-11.59-11.22-11.59s-11.22,4.88-11.22,11.59,4.45,11.59,11.22,11.59,11.22-4.88,11.22-11.59Z"/>
    <path class="cls-1" d="M347.98,72.92h9.64c0,2.5,1.53,4.09,5.37,4.09s5.37-1.59,5.37-4.09c0-2.62-3.05-3.23-6.71-3.9-5.67-1.04-12.93-2.38-12.93-12.08,0-7.56,5.73-12.93,14.34-12.93s14.03,5.06,14.34,12.63h-9.27c-.06-2.32-1.53-4.15-4.94-4.15s-4.94,2.01-4.94,4.09c0,2.62,3.05,3.23,6.77,3.9,5.73,1.04,12.99,2.38,12.99,12.08,0,7.93-5.98,12.93-15.01,12.93s-14.82-4.82-15.01-12.57Z"/>
    <path class="cls-1" d="M384.03,44.79h9.88v39.9h-9.88v-39.9Z"/>
    <path class="cls-1" d="M399.95,72.92h9.64c0,2.5,1.53,4.09,5.37,4.09s5.37-1.59,5.37-4.09c0-2.62-3.05-3.23-6.71-3.9-5.67-1.04-12.93-2.38-12.93-12.08,0-7.56,5.73-12.93,14.34-12.93s14.03,5.06,14.34,12.63h-9.27c-.06-2.32-1.53-4.15-4.94-4.15s-4.94,2.01-4.94,4.09c0,2.62,3.05,3.23,6.77,3.9,5.73,1.04,12.99,2.38,12.99,12.08,0,7.93-5.98,12.93-15.01,12.93s-14.82-4.82-15.01-12.57Z"/>
  </g>
</svg>